<?xml version="1.0" encoding="UTF-8" standalone="no"?>
<svg
   xmlns:dc="http://purl.org/dc/elements/1.1/"
   xmlns:cc="http://creativecommons.org/ns#"
   xmlns:rdf="http://www.w3.org/1999/02/22-rdf-syntax-ns#"
   xmlns:svg="http://www.w3.org/2000/svg"
   xmlns="http://www.w3.org/2000/svg"
   id="svg1804"
   version="1.1"
   viewBox="0 0 64 64"
   height="64mm"
   width="64mm">
  <defs
     id="defs1798" />
  <metadata
     id="metadata1801">
    <rdf:RDF>
      <cc:Work
         rdf:about="">
        <dc:format>image/svg+xml</dc:format>
        <dc:type
           rdf:resource="http://purl.org/dc/dcmitype/StillImage" />
        <dc:title></dc:title>
      </cc:Work>
    </rdf:RDF>
  </metadata>
  <g
     transform="translate(0,-233)"
     id="layer1">
    <path
       id="path2349"
       d="m 0.590312,260.38468 v 36.68646 h 6.4479241 v -9.00486 H 54.063616 v 8.67135 h 7.22612 V 275.28161 H 6.815894 v -14.89693 z"
       style="fill:#84604a;fill-opacity:1;stroke:#000000;stroke-width:0.31127909px;stroke-linecap:butt;stroke-linejoin:miter;stroke-opacity:1" />
    <path
       id="path2351"
       d="m 6.8714796,270.64027 c 2.1942006,-0.006 4.2552884,-0.61187 6.5868894,0 0.328555,0.79451 0.845376,1.08698 0.972747,2.41798 0.06484,1.27844 -0.428953,1.43963 -0.694819,2.05666 -2.300848,0.02 -4.0707632,0.17273 -6.920403,0.0555 -0.4832977,-0.17984 -0.8294381,-0.83972 -1.167296,-1.5286 0,0 -0.027789,-2.22342 1.2228816,-3.00162 z"
       style="fill:#f5f6ff;fill-opacity:1;stroke:#000000;stroke-width:0.31127909px;stroke-linecap:butt;stroke-linejoin:miter;stroke-opacity:1" />
    <path
       id="path2355"
       d="m 6.815894,275.17044 v 8.11549 h 54.473842 v -8.00432 z"
       style="fill:#e2f6ff;fill-opacity:1;stroke:#000000;stroke-width:0.31127909px;stroke-linecap:butt;stroke-linejoin:miter;stroke-opacity:1" />
    <path
       id="path2357"
       d="m 13.458369,274.94809 v -1.55639 h 44.746369 l 5.058285,2.55693 -0.389098,5.61414 -1.445222,-0.16675 -0.277929,-5.16946 -3.223961,-0.83379 z"
       style="fill:#faeddf;fill-opacity:1;stroke:#000000;stroke-width:0.31127909px;stroke-linecap:butt;stroke-linejoin:miter;stroke-opacity:1" />
  </g>
</svg>
