<?xml version="1.0" encoding="UTF-8" standalone="no"?>
<svg
   xmlns:dc="http://purl.org/dc/elements/1.1/"
   xmlns:cc="http://creativecommons.org/ns#"
   xmlns:rdf="http://www.w3.org/1999/02/22-rdf-syntax-ns#"
   xmlns:svg="http://www.w3.org/2000/svg"
   xmlns="http://www.w3.org/2000/svg"
   id="svg1689"
   version="1.1"
   viewBox="0 0 64 64"
   height="64mm"
   width="64mm">
  <defs
     id="defs1683" />
  <metadata
     id="metadata1686">
    <rdf:RDF>
      <cc:Work
         rdf:about="">
        <dc:format>image/svg+xml</dc:format>
        <dc:type
           rdf:resource="http://purl.org/dc/dcmitype/StillImage" />
        <dc:title></dc:title>
      </cc:Work>
    </rdf:RDF>
  </metadata>
  <g
     transform="translate(0,-233)"
     id="layer1">
    <path
       id="path2234-1"
       d="m 0.33218398,254.23991 -0.0115152,42.66301 H 7.7823782 v -42.6515 z"
       style="fill:#b73b3b;fill-opacity:1;stroke:#000000;stroke-width:0.25793561px;stroke-linecap:butt;stroke-linejoin:miter;stroke-opacity:1" />
    <path
       id="path2236-1"
       d="M 0.33218398,254.23991 C 4.6913718,251.90728 12.651148,248.55777 17.774281,245.69367 l 7.510871,-0.0461 -17.5027738,8.60382 z"
       style="fill:#dee4de;fill-opacity:1;stroke:#000000;stroke-width:0.25793561px;stroke-linecap:butt;stroke-linejoin:miter;stroke-opacity:1" />
    <path
       id="path2238-4"
       d="M 25.285152,245.64761 V 286.5855 L 7.7823782,296.90292 v -42.6515 z"
       style="fill:#007b00;fill-opacity:1;stroke:#000000;stroke-width:0.25793561px;stroke-linecap:butt;stroke-linejoin:miter;stroke-opacity:1" />
    <path
       id="path2234-08"
       d="m 7.7823782,254.25142 -0.011515,42.66301 h 7.461709 v -42.65149 z"
       style="fill:#ce8900;fill-opacity:1;stroke:#000000;stroke-width:0.25793561px;stroke-linecap:butt;stroke-linejoin:miter;stroke-opacity:1" />
    <path
       id="path2236-00"
       d="m 7.7823782,254.25142 c 4.3591878,-2.33263 12.3189638,-5.68213 17.4420968,-8.54624 l 7.510871,-0.0461 -17.502774,8.60382 z"
       style="fill:#dee4de;fill-opacity:1;stroke:#000000;stroke-width:0.25793561px;stroke-linecap:butt;stroke-linejoin:miter;stroke-opacity:1" />
    <path
       id="path2238-21"
       d="m 32.735346,245.65912 v 40.93789 l -17.502774,10.31742 v -42.65149 z"
       style="fill:#007b00;fill-opacity:1;stroke:#000000;stroke-width:0.25793561px;stroke-linecap:butt;stroke-linejoin:miter;stroke-opacity:1" />
    <g
       transform="matrix(0.97487484,0,0,0.97487484,12.641701,12.546791)"
       id="g2243">
      <path
         style="fill:#00a900;fill-opacity:1;stroke:#000000;stroke-width:0.26458332px;stroke-linecap:butt;stroke-linejoin:miter;stroke-opacity:1"
         d="m 2.6576451,247.94578 -0.011812,43.76255 h 7.6540179 v -43.75074 z"
         id="path2234" />
      <path
         style="fill:#dee4de;fill-opacity:1;stroke:#000000;stroke-width:0.26458332px;stroke-linecap:butt;stroke-linejoin:miter;stroke-opacity:1"
         d="m 2.6576451,247.94578 c 4.4715359,-2.39275 12.6364569,-5.82858 17.8916269,-8.7665 l 7.704447,-0.0473 -17.953868,8.82556 z"
         id="path2236" />
      <path
         style="fill:#007b00;fill-opacity:1;stroke:#000000;stroke-width:0.26458332px;stroke-linecap:butt;stroke-linejoin:miter;stroke-opacity:1"
         d="M 28.253719,239.13203 V 281.125 l -17.953868,10.58333 v -43.75074 z"
         id="path2238" />
    </g>
    <path
       id="path2234-0"
       d="m 22.682767,259.77304 -0.01151,37.16437 h 7.46171 v -37.15434 z"
       style="fill:#d95ab7;fill-opacity:1;stroke:#000000;stroke-width:0.24074042px;stroke-linecap:butt;stroke-linejoin:miter;stroke-opacity:1" />
    <path
       id="path2236-0"
       d="m 22.682767,259.77304 c 4.359188,-2.03199 12.595323,-6.88432 17.718456,-9.37927 l 7.234512,-0.0402 -17.502774,9.42942 z"
       style="fill:#dee4de;fill-opacity:1;stroke:#000000;stroke-width:0.24074042px;stroke-linecap:butt;stroke-linejoin:miter;stroke-opacity:1" />
    <path
       id="path2238-2"
       d="m 47.635735,250.3536 v 37.59616 l -17.502774,8.98765 v -37.15434 z"
       style="fill:#d77bce;fill-opacity:1;stroke:#000000;stroke-width:0.24074042px;stroke-linecap:butt;stroke-linejoin:miter;stroke-opacity:1" />
    <path
       id="path2234-0-6"
       d="m 29.917629,272.93132 15.026566,23.87106 6.270987,-2.30692 -15.032186,-23.86106 z"
       style="fill:#287bcd;fill-opacity:1;stroke:#000000;stroke-width:0.19629087px;stroke-linecap:butt;stroke-linejoin:miter;stroke-opacity:1" />
    <path
       id="path2236-0-9"
       d="m 29.917629,272.93132 c 2.841441,-2.65269 8.350507,-6.98746 11.64667,-10.17367 l 6.296052,-2.34792 -11.677372,10.22464 z"
       style="fill:#dee4de;fill-opacity:1;stroke:#000000;stroke-width:0.19629087px;stroke-linecap:butt;stroke-linejoin:miter;stroke-opacity:1" />
    <path
       id="path2238-2-2"
       d="M 47.860369,260.40976 62.288608,283.31215 51.215182,294.49546 36.182996,270.6344 Z"
       style="fill:#1c7b9f;fill-opacity:1;stroke:#000000;stroke-width:0.19629087px;stroke-linecap:butt;stroke-linejoin:miter;stroke-opacity:1" />
  </g>
</svg>
