<?xml version="1.0" encoding="UTF-8" standalone="no"?>
<svg
   xmlns:dc="http://purl.org/dc/elements/1.1/"
   xmlns:cc="http://creativecommons.org/ns#"
   xmlns:rdf="http://www.w3.org/1999/02/22-rdf-syntax-ns#"
   xmlns:svg="http://www.w3.org/2000/svg"
   xmlns="http://www.w3.org/2000/svg"
   id="svg8"
   version="1.1"
   viewBox="0 0 128 128"
   height="128mm"
   width="128mm">
  <defs
     id="defs2" />
  <metadata
     id="metadata5">
    <rdf:RDF>
      <cc:Work
         rdf:about="">
        <dc:format>image/svg+xml</dc:format>
        <dc:type
           rdf:resource="http://purl.org/dc/dcmitype/StillImage" />
        <dc:title></dc:title>
      </cc:Work>
    </rdf:RDF>
  </metadata>
  <g
     transform="translate(0,-169)"
     id="layer1" />
  <g
     id="layer2">
    <g
       transform="matrix(1.173965,0,0,1.173965,-12.510096,-7.3117255)"
       id="g1629">
      <path
         transform="translate(0,-169)"
         style="fill:#9b4457;fill-opacity:1;stroke:#754457;stroke-width:0.26458332px;stroke-linecap:butt;stroke-linejoin:miter;stroke-opacity:1"
         d="m 77.107258,271.74303 40.758602,-25.52424 -1.46998,-30.20145 -39.956798,23.38608"
         id="path1551" />
      <path
         transform="translate(0,-169)"
         style="fill:#754457;fill-opacity:1;stroke:#000000;stroke-width:0.43707794px;stroke-linecap:butt;stroke-linejoin:miter;stroke-opacity:1"
         d="m 34.299092,258.3188 -0.242184,-32.59883 42.382174,13.68345 0.668176,32.33961 -44.019084,-13.42423"
         id="path1555-4" />
      <path
         transform="translate(0,-169)"
         style="fill:#bec3c3;fill-opacity:1;stroke:#000000;stroke-width:0.26458332px;stroke-linecap:butt;stroke-linejoin:miter;stroke-opacity:1"
         d="m 41.388393,238.60268 -30.616072,44.4122 57.452381,-15.68601 c 0.76986,0.54853 1.033907,-24.39299 -26.836309,-28.72619"
         id="path1518" />
      <path
         transform="translate(0,-169)"
         style="fill:#da4457;fill-opacity:1;stroke:#000000;stroke-width:0.26458332px;stroke-linecap:butt;stroke-linejoin:miter;stroke-opacity:1"
         d="m 68.224701,267.32887 4.606245,0.67239 c 0,0 3.207234,-17.10525 -6.414469,-26.72695 -9.621702,-9.62171 -24.054257,-9.35444 -24.054257,-9.35444 l -0.973828,6.68281 c 0,0 27.040916,3.33137 26.836309,28.72619"
         id="path1520" />
      <path
         style="fill:#5b4457;fill-opacity:1;stroke:none;stroke-width:0.26458332px;stroke-linecap:butt;stroke-linejoin:miter;stroke-opacity:1"
         d="M 34.056907,56.719969 73.098215,33.921128 116.39588,47.017339 76.439082,70.40342 Z"
         id="path1581" />
      <path
         style="fill:#754457;fill-opacity:1;stroke:#000000;stroke-width:0.2457255px;stroke-linecap:butt;stroke-linejoin:miter;stroke-opacity:1"
         d="M 67.475592,49.033548 67.341887,30.370457 90.740176,38.20435 90.339062,56.521814 66.80707,49.033548"
         id="path1555" />
      <path
         style="fill:#9b4457;fill-opacity:1;stroke:#000000;stroke-width:0.2457255px;stroke-linecap:butt;stroke-linejoin:miter;stroke-opacity:1"
         d="M 90.339062,56.521814 105.44767,48.91834 106.2499,29.218422 90.740176,38.20435"
         id="path1557" />
      <path
         style="fill:#bfe2e2;fill-opacity:1;stroke:#000000;stroke-width:0.26458332px;stroke-linecap:butt;stroke-linejoin:miter;stroke-opacity:1"
         d="m 67.341887,30.370457 c 0,0 1.615822,-14.215846 19.790151,-14.349481 C 105.30636,15.887342 106.2499,29.218422 106.2499,29.218422 L 90.740176,38.20435 Z"
         id="path1585" />
      <path
         style="fill:none;stroke:#000000;stroke-width:0.26458332px;stroke-linecap:butt;stroke-linejoin:miter;stroke-opacity:1"
         d="m 87.129865,16.014071 c 0.53454,1.870887 4.011425,3.872815 3.610311,22.190278"
         id="path1587" />
      <ellipse
         transform="translate(0,-169)"
         style="opacity:1;fill:#1d4457;fill-opacity:1;fill-rule:nonzero;stroke:#000a00;stroke-width:0.79471046;stroke-miterlimit:4;stroke-dasharray:none;stroke-opacity:1;paint-order:stroke markers fill"
         id="path1524"
         cx="97.820648"
         cy="251.69781"
         rx="5.0471306"
         ry="10.793426" />
      <ellipse
         transform="translate(0,-169)"
         style="opacity:1;fill:#1d4457;fill-opacity:1;fill-rule:nonzero;stroke:#000a00;stroke-width:0.79471046;stroke-miterlimit:4;stroke-dasharray:none;stroke-opacity:1;paint-order:stroke markers fill"
         id="path1524-2"
         cx="86.060783"
         cy="257.31049"
         rx="5.0471306"
         ry="10.793426" />
      <ellipse
         transform="translate(0,-169)"
         style="opacity:1;fill:#1d4457;fill-opacity:1;fill-rule:nonzero;stroke:#000a00;stroke-width:0.79471046;stroke-miterlimit:4;stroke-dasharray:none;stroke-opacity:1;paint-order:stroke markers fill"
         id="path1524-4"
         cx="109.58051"
         cy="246.61969"
         rx="5.0471306"
         ry="10.793426" />
      <path
         style="fill:#754457;fill-opacity:1;stroke:#000000;stroke-width:0.03943785px;stroke-linecap:butt;stroke-linejoin:miter;stroke-opacity:1"
         d="m 35.770333,56.349294 -0.02252,-2.853738 3.941664,1.197866 -0.06757,2.800889 -3.964188,-1.145017"
         id="path1555-0" />
      <path
         style="fill:#9b4457;fill-opacity:1;stroke:#000000;stroke-width:0.03943785px;stroke-linecap:butt;stroke-linejoin:miter;stroke-opacity:1"
         d="m 39.621902,57.494311 2.545189,-1.162633 0.135143,-3.012277 -2.612761,1.374021"
         id="path1557-1" />
      <path
         style="fill:#5b4457;fill-opacity:1;stroke:#000000;stroke-width:0.065;stroke-linecap:butt;stroke-linejoin:miter;stroke-miterlimit:4;stroke-dasharray:none;stroke-opacity:1"
         d="m 35.747811,53.495556 2.900254,-1.397897 3.654169,1.221743 -2.612761,1.37402 z"
         id="path1610" />
    </g>
  </g>
</svg>
