<?xml version="1.0" encoding="UTF-8" standalone="no"?>
<svg
   xmlns:dc="http://purl.org/dc/elements/1.1/"
   xmlns:cc="http://creativecommons.org/ns#"
   xmlns:rdf="http://www.w3.org/1999/02/22-rdf-syntax-ns#"
   xmlns:svg="http://www.w3.org/2000/svg"
   xmlns="http://www.w3.org/2000/svg"
   id="svg1072"
   version="1.1"
   viewBox="0 0 64 64"
   height="64mm"
   width="64mm">
  <defs
     id="defs1066" />
  <metadata
     id="metadata1069">
    <rdf:RDF>
      <cc:Work
         rdf:about="">
        <dc:format>image/svg+xml</dc:format>
        <dc:type
           rdf:resource="http://purl.org/dc/dcmitype/StillImage" />
        <dc:title></dc:title>
      </cc:Work>
    </rdf:RDF>
  </metadata>
  <g
     transform="translate(0,-233)"
     id="layer1">
    <path
       id="path1662"
       d="m 35.843848,269.54125 3.106898,-0.78871 7.323391,25.66439 -4.660344,0.66739 z"
       style="fill:#121517;fill-opacity:1;stroke:#000000;stroke-width:0.64980447px;stroke-linecap:butt;stroke-linejoin:miter;stroke-opacity:1" />
    <path
       id="path1662-8"
       d="m 32.345519,270.58842 -2.959206,-0.74481 -6.975266,24.23541 4.438809,0.63023 z"
       style="fill:#121517;fill-opacity:1;stroke:#000000;stroke-width:0.61626363px;stroke-linecap:butt;stroke-linejoin:miter;stroke-opacity:1" />
    <ellipse
       ry="5.517756"
       rx="5.5559978"
       cy="267.18826"
       cx="33.963192"
       id="path1679"
       style="opacity:1;fill:#121517;fill-opacity:1;fill-rule:nonzero;stroke:#000000;stroke-width:0.13056539;stroke-miterlimit:4;stroke-dasharray:none;stroke-opacity:1;paint-order:stroke markers fill" />
    <path
       id="path1617"
       d="m 43.704966,239.18697 -40.1402398,42.62906 7.0430758,6.93113 42.840969,-41.01353 z"
       style="fill:#122c2c;fill-opacity:1;stroke:#000000;stroke-width:0.29418436px;stroke-linecap:butt;stroke-linejoin:miter;stroke-opacity:1" />
    <path
       id="path1644"
       d="m 43.704966,239.18697 -2.24994,-2.21417 3.445124,-3.39038 13.43896,13.22536 -2.762108,2.71821 -2.128235,-1.79236"
       style="fill:#9b9290;fill-opacity:1;stroke:#000000;stroke-width:0.38924199px;stroke-linecap:butt;stroke-linejoin:miter;stroke-opacity:1" />
    <path
       id="path1646"
       d="m 5.9434145,278.06219 -2.0319311,-1.86173 1.6815984,-1.44801 3.1529957,3.37868 -1.3312657,1.51697 z"
       style="fill:#6d6a61;fill-opacity:1;stroke:#000000;stroke-width:0.38924199px;stroke-linecap:butt;stroke-linejoin:miter;stroke-opacity:1" />
    <path
       id="path1648"
       d="m 3.9114834,276.20046 v 0 l -2.2421299,-0.20686 4.0638613,-3.30974 -0.1401271,2.06859"
       style="fill:#9b9290;fill-opacity:1;stroke:#000000;stroke-width:0.38924199px;stroke-linecap:butt;stroke-linejoin:miter;stroke-opacity:1" />
    <path
       id="path1650"
       d="m 30.957182,249.44673 2.312194,-2.96497 11.91132,11.23931 -2.872731,2.75812 z"
       style="fill:#9b9290;fill-opacity:1;stroke:#000000;stroke-width:0.38924199px;stroke-linecap:butt;stroke-linejoin:miter;stroke-opacity:1" />
    <path
       id="path1652"
       d="m 13.580672,269.44307 c 0.07007,-0.34477 1.891796,-2.3444 1.891796,-2.3444 l 9.529054,9.72236 -2.592463,2.27544 z"
       style="fill:#9b9290;fill-opacity:1;stroke:#000000;stroke-width:0.38924199px;stroke-linecap:butt;stroke-linejoin:miter;stroke-opacity:1" />
    <path
       id="path1654"
       d="m 1.7394202,282.81993 1.825306,-1.0039 7.0430758,6.93113 c 0,0 -0.250194,2.55397 -0.53046,2.41607 -0.2802664,-0.13791 -8.7583213,-8.4812 -8.7583213,-8.4812"
       style="fill:#9b9290;fill-opacity:1;stroke:#000000;stroke-width:0.38924199px;stroke-linecap:butt;stroke-linejoin:miter;stroke-opacity:1" />
    <path
       id="path1681"
       d="m 32.647694,272.43155 -1.653646,18.94606 h 5.38616 L 35.38802,272.43155 Z"
       style="fill:#3a4141;fill-opacity:1;stroke:#000000;stroke-width:0.26458332px;stroke-linecap:butt;stroke-linejoin:miter;stroke-opacity:1" />
  </g>
</svg>
