<?xml version="1.0" encoding="UTF-8" standalone="no"?>
<svg
   xmlns:dc="http://purl.org/dc/elements/1.1/"
   xmlns:cc="http://creativecommons.org/ns#"
   xmlns:rdf="http://www.w3.org/1999/02/22-rdf-syntax-ns#"
   xmlns:svg="http://www.w3.org/2000/svg"
   xmlns="http://www.w3.org/2000/svg"
   id="svg1804"
   version="1.1"
   viewBox="0 0 64 64"
   height="64mm"
   width="64mm">
  <defs
     id="defs1798" />
  <metadata
     id="metadata1801">
    <rdf:RDF>
      <cc:Work
         rdf:about="">
        <dc:format>image/svg+xml</dc:format>
        <dc:type
           rdf:resource="http://purl.org/dc/dcmitype/StillImage" />
        <dc:title></dc:title>
      </cc:Work>
    </rdf:RDF>
  </metadata>
  <g
     transform="translate(0,-233)"
     id="layer1">
    <path
       id="path2349"
       d="m 5.1026784,260.71429 v 31.18303 h 5.4806546 v -7.65402 h 39.970982 v 7.37054 h 6.142112 V 273.37649 H 10.394345 v -12.6622 z"
       style="fill:#84604a;stroke:#000000;stroke-width:0.26458332px;stroke-linecap:butt;stroke-linejoin:miter;stroke-opacity:1;fill-opacity:1" />
    <path
       id="path2351"
       d="m 10.441592,269.43141 c 1.865043,-0.005 3.616942,-0.52008 5.598773,0 0.279268,0.67532 0.718559,0.92392 0.826823,2.05525 0.05511,1.08666 -0.364605,1.22367 -0.590588,1.74814 -1.955691,0.017 -3.460097,0.14682 -5.882255,0.0472 -0.410797,-0.15286 -0.705012,-0.71375 -0.992187,-1.29929 0,0 -0.02362,-1.88988 1.039434,-2.55134 z"
       style="fill:#f5f6ff;stroke:#000000;stroke-width:0.26458332px;stroke-linecap:butt;stroke-linejoin:miter;stroke-opacity:1;fill-opacity:1" />
    <path
       id="path2355"
       d="m 10.394345,273.282 v 6.89806 h 46.302082 v -6.80357 z"
       style="fill:#e2f6ff;fill-opacity:1;stroke:#000000;stroke-width:0.26458332px;stroke-linecap:butt;stroke-linejoin:miter;stroke-opacity:1" />
    <path
       id="path2357"
       d="m 16.040365,273.093 v -1.32291 h 38.033852 l 4.299479,2.17336 -0.330729,4.77195 -1.22842,-0.14174 -0.236236,-4.39397 -2.740327,-0.70871 z"
       style="fill:#faeddf;stroke:#000000;stroke-width:0.26458332px;stroke-linecap:butt;stroke-linejoin:miter;stroke-opacity:1;fill-opacity:1" />
  </g>
</svg>
