<?xml version="1.0" encoding="UTF-8" standalone="no"?>
<svg
   xmlns:dc="http://purl.org/dc/elements/1.1/"
   xmlns:cc="http://creativecommons.org/ns#"
   xmlns:rdf="http://www.w3.org/1999/02/22-rdf-syntax-ns#"
   xmlns:svg="http://www.w3.org/2000/svg"
   xmlns="http://www.w3.org/2000/svg"
   id="svg1586"
   version="1.1"
   viewBox="0 0 64 64"
   height="64mm"
   width="64mm">
  <defs
     id="defs1580" />
  <metadata
     id="metadata1583">
    <rdf:RDF>
      <cc:Work
         rdf:about="">
        <dc:format>image/svg+xml</dc:format>
        <dc:type
           rdf:resource="http://purl.org/dc/dcmitype/StillImage" />
        <dc:title></dc:title>
      </cc:Work>
    </rdf:RDF>
  </metadata>
  <g
     transform="translate(0,-233)"
     id="layer1">
    <ellipse
       ry="4.5639915"
       rx="12.036469"
       cy="290.63116"
       cx="33.49176"
       id="path2131-6"
       style="fill:#846e67;fill-opacity:1;stroke-width:0.25156486" />
    <ellipse
       ry="4.0442743"
       rx="12.053174"
       cy="277.2655"
       cx="33.508465"
       id="path2131-6-8"
       style="fill:#4f4328;fill-opacity:0.82412058;stroke-width:0.23697308" />
    <path
       id="path5885"
       d="m 21.580112,284.20946 v -6.24345 l 0.244405,0.32261 c 1.053917,1.39117 4.247049,2.48698 8.481172,2.91054 1.345696,0.13462 4.941715,0.13557 6.347052,0.002 4.248629,-0.40478 7.509568,-1.53116 8.500224,-2.9361 l 0.224175,-0.31793 v 6.24635 6.24634 l -0.155198,-0.22259 c -1.019484,-1.46221 -4.300511,-2.60136 -8.670543,-3.01035 -1.670559,-0.15635 -6.145768,-0.0641 -7.59076,0.15642 -3.65855,0.55841 -6.213221,1.54909 -7.136122,2.76731 l -0.244405,0.32261 z"
       style="fill:#846e67;fill-opacity:1;stroke-width:0.08457457" />
    <rect
       ry="0.48684937"
       y="246.72917"
       x="31.277529"
       height="30.899553"
       width="4.5357141"
       id="rect1370"
       style="opacity:1;fill:#4e4328;fill-opacity:1;fill-rule:nonzero;stroke:none;stroke-width:1.80157089;stroke-miterlimit:4;stroke-dasharray:none;stroke-opacity:1;paint-order:stroke markers fill" />
    <path
       id="path1372"
       d="m 33.633717,246.81326 c -15.02779,6.713 -15.865771,10.65776 -15.865771,10.65776 0,0 11.50827,-4.4984 15.865771,-10.65776 z"
       style="fill:#4e6d28;fill-opacity:1;stroke:#000000;stroke-width:0.17410134px;stroke-linecap:butt;stroke-linejoin:miter;stroke-opacity:1" />
    <path
       id="path1372-3"
       d="m 34.564179,244.64726 c -11.455756,13.09298 -10.435151,16.34475 -10.435151,16.34475 0,0 9.071382,-9.57287 10.435151,-16.34475 z"
       style="fill:#4e7b28;fill-opacity:1;stroke:#000000;stroke-width:0.16909522px;stroke-linecap:butt;stroke-linejoin:miter;stroke-opacity:1" />
    <path
       id="path1372-8"
       d="m 43.721382,260.214 c -7.748578,-13.56022 -10.265398,-13.26699 -10.265398,-13.26699 0,0 5.558752,10.57321 10.265398,13.26699 z"
       style="fill:#4e5b38;fill-opacity:1;stroke:#000000;stroke-width:0.14340004px;stroke-linecap:butt;stroke-linejoin:miter;stroke-opacity:1" />
    <path
       id="path1372-5"
       d="M 33.603054,246.97113 C 21.278528,234.70707 18.333932,236.16921 18.333932,236.16921 c 0,0 9.031951,9.77794 15.269122,10.80192 z"
       style="fill:#649a3b;fill-opacity:1;stroke:#000000;stroke-width:0.17487402px;stroke-linecap:butt;stroke-linejoin:miter;stroke-opacity:1" />
    <path
       id="path1372-7"
       d="m 33.544939,246.87015 c -17.743063,1.96988 -19.48317,5.20414 -19.48317,5.20414 0,0 13.452549,-0.94636 19.48317,-5.20414 z"
       style="fill:#58a735;fill-opacity:1;stroke:#000000;stroke-width:0.17459099px;stroke-linecap:butt;stroke-linejoin:miter;stroke-opacity:1" />
    <path
       id="path1372-7-4"
       d="m 33.519176,246.91485 c -17.195741,-10.64363 -20.4577,-7.6733 -20.4577,-7.6733 0,0 12.754098,8.79212 20.4577,7.6733 z"
       style="fill:#4e7b28;fill-opacity:1;stroke:#000000;stroke-width:0.22015496px;stroke-linecap:butt;stroke-linejoin:miter;stroke-opacity:1" />
    <path
       id="path1372-7-46"
       d="m 51.958275,239.27024 c -16.84979,2.90582 -18.502291,7.67677 -18.502291,7.67677 0,0 12.775282,-1.39601 18.502291,-7.67677 z"
       style="fill:#659143;fill-opacity:1;stroke:#000000;stroke-width:0.20664254px;stroke-linecap:butt;stroke-linejoin:miter;stroke-opacity:1" />
    <path
       id="path1372-7-48"
       d="m 53.555174,244.31716 c -17.760651,-1.77128 -20.035998,2.59769 -20.035998,2.59769 0,0 13.36989,2.16031 20.035998,-2.59769 z"
       style="fill:#618443;fill-opacity:1;stroke:#000000;stroke-width:0.21473791px;stroke-linecap:butt;stroke-linejoin:miter;stroke-opacity:1" />
    <path
       id="path1372-7-44"
       d="m 55.27513,249.04954 c -18.385886,-5.33732 -21.755954,-2.13469 -21.755954,-2.13469 0,0 13.657995,4.7171 21.755954,2.13469 z"
       style="fill:#4e7b28;fill-opacity:1;stroke:#000000;stroke-width:0.2083884px;stroke-linecap:butt;stroke-linejoin:miter;stroke-opacity:1" />
    <path
       id="path1372-7-44-8"
       d="m 43.523908,237.91358 c -10.148505,6.18796 -10.067924,9.03343 -10.067924,9.03343 0,0 7.888033,-4.28884 10.067924,-9.03343 z"
       style="fill:#4e7b28;fill-opacity:1;stroke:#000000;stroke-width:0.12882191px;stroke-linecap:butt;stroke-linejoin:miter;stroke-opacity:1" />
    <path
       id="path1372-5-8"
       d="m 33.534201,246.94515 c -20.181218,-4.50866 -23.04266,-1.46525 -23.04266,-1.46525 0,0 15.142388,4.04555 23.04266,1.46525 z"
       style="fill:#4e7b28;fill-opacity:1;stroke:#000000;stroke-width:0.20490386px;stroke-linecap:butt;stroke-linejoin:miter;stroke-opacity:1" />
    <path
       id="path1372-5-3"
       d="m 33.545252,246.97315 c -1.080934,-12.25739 -4.798101,-13.40837 -4.798101,-13.40837 0,0 0.169803,9.30257 4.798101,13.40837 z"
       style="fill:#4e7b28;fill-opacity:1;stroke:#000000;stroke-width:0.15822946px;stroke-linecap:butt;stroke-linejoin:miter;stroke-opacity:1" />
    <path
       id="path1372-5-3-6"
       d="m 33.426664,246.91296 c 3.921005,-10.25723 1.552871,-12.6995 1.552871,-12.6995 0,0 -3.468128,7.51845 -1.552871,12.6995 z"
       style="fill:#4e7b28;fill-opacity:1;stroke:#000000;stroke-width:0.13831846px;stroke-linecap:butt;stroke-linejoin:miter;stroke-opacity:1" />
    <path
       id="path1372-5-3-2"
       d="m 33.562717,246.8995 c -5.773237,-10.77542 -8.623623,-9.59706 -8.623623,-9.59706 0,0 3.966194,8.57193 8.623623,9.59706 z"
       style="fill:#4e7b28;fill-opacity:1;stroke:#000000;stroke-width:0.1455823px;stroke-linecap:butt;stroke-linejoin:miter;stroke-opacity:1" />
    <path
       id="path1372-5-3-5"
       d="m 33.519144,246.90594 c 9.773534,7.47596 13.131783,5.51021 13.131783,5.51021 0,0 -6.978367,-6.15379 -13.131783,-5.51021 z"
       style="fill:#4e7b28;fill-opacity:1;stroke:#000000;stroke-width:0.15822946px;stroke-linecap:butt;stroke-linejoin:miter;stroke-opacity:1" />
    <path
       id="path1372-5-3-8"
       d="m 38.343352,260.38152 c -1.080934,-12.25739 -4.7981,-13.40837 -4.7981,-13.40837 0,0 0.169803,9.30257 4.7981,13.40837 z"
       style="fill:#4e8d28;fill-opacity:1;stroke:#000000;stroke-width:0.15822946px;stroke-linecap:butt;stroke-linejoin:miter;stroke-opacity:1" />
    <path
       id="path1372-5-3-1"
       d="m 30.78737,260.94456 c 5.358613,-11.07688 2.757882,-13.97141 2.757882,-13.97141 0,0 -4.625319,8.07299 -2.757882,13.97141 z"
       style="fill:#4e7b28;fill-opacity:1;stroke:#000000;stroke-width:0.15822946px;stroke-linecap:butt;stroke-linejoin:miter;stroke-opacity:1" />
    <path
       id="path1372-5-3-6-8"
       d="m 33.426664,246.91296 c 7.488606,-6.64614 5.643879,-9.61913 5.643879,-9.61913 0,0 -6.141811,4.62137 -5.643879,9.61913 z"
       style="fill:#4e9528;fill-opacity:1;stroke:#000000;stroke-width:0.13965406px;stroke-linecap:butt;stroke-linejoin:miter;stroke-opacity:1" />
  </g>
</svg>
