<?xml version="1.0" encoding="UTF-8" standalone="no"?>
<svg
   xmlns:dc="http://purl.org/dc/elements/1.1/"
   xmlns:cc="http://creativecommons.org/ns#"
   xmlns:rdf="http://www.w3.org/1999/02/22-rdf-syntax-ns#"
   xmlns:svg="http://www.w3.org/2000/svg"
   xmlns="http://www.w3.org/2000/svg"
   id="svg8"
   version="1.1"
   viewBox="0 0 64 64"
   height="64mm"
   width="64mm">
  <defs
     id="defs2" />
  <metadata
     id="metadata5">
    <rdf:RDF>
      <cc:Work
         rdf:about="">
        <dc:format>image/svg+xml</dc:format>
        <dc:type
           rdf:resource="http://purl.org/dc/dcmitype/StillImage" />
        <dc:title></dc:title>
      </cc:Work>
    </rdf:RDF>
  </metadata>
  <g
     id="layer2">
    <path
       id="path835"
       d="m 30.238095,52.258964 c 0,0 3.118303,-2.972324 1.700893,-4.993587 -1.41741,-2.021261 1.322917,-10.692775 1.322917,-10.692775 0,0 2.834821,-7.824735 6.520089,2.388576 3.755155,10.406995 4.252232,13.888524 4.252232,13.888524 z"
       style="fill:#3173c5;fill-opacity:0.57788942;stroke:none;stroke-width:0.28073391px;stroke-linecap:butt;stroke-linejoin:miter;stroke-opacity:1" />
    <ellipse
       ry="1.5827752"
       rx="1.3629453"
       cy="28.777346"
       cx="35.947765"
       id="path837"
       style="opacity:1;fill:#3173c5;fill-opacity:0.57788942;fill-rule:nonzero;stroke:none;stroke-width:0.65655863;stroke-miterlimit:4;stroke-dasharray:none;stroke-opacity:1;paint-order:stroke markers fill" />
    <ellipse
       ry="0.90859663"
       rx="0.94494051"
       cy="15.771695"
       cx="31.844494"
       id="path839"
       style="opacity:1;fill:#3173c5;fill-opacity:0.57788942;fill-rule:nonzero;stroke:none;stroke-width:0.54273504;stroke-miterlimit:4;stroke-dasharray:none;stroke-opacity:1;paint-order:stroke markers fill" />
    <path
       id="path841"
       d="m 36.33296,17.745165 c 0,0 1.181175,-3.638021 -1.984374,-4.677455 C 31.183035,12.028275 31.75,10.232888 31.75,10.232888 l 8.740698,-0.09449 -0.803195,4.299479 c 0,0 -1.559155,8.929687 -3.874255,7.323288 -2.315104,-1.606399 -0.377978,-2.882068 -0.377978,-2.882068 z"
       style="fill:#3173c5;stroke:none;stroke-width:0.26458332px;stroke-linecap:butt;stroke-linejoin:miter;stroke-opacity:0.65490198;fill-opacity:0.65490198" />
  </g>
  <g
     transform="translate(0,-233)"
     id="layer1">
    <path
       id="path815"
       d="m 26.687144,296.7137 18.119471,0.20732 -1.805261,-4.97553 2.875046,-5.94298 -20.392765,-0.0691 2.808185,5.87389 z"
       style="fill:#483141;fill-opacity:1;stroke:#000000;stroke-width:1.38802171;stroke-linecap:butt;stroke-linejoin:miter;stroke-miterlimit:4;stroke-dasharray:none;stroke-opacity:1" />
    <path
       id="path817"
       d="m 25.16903,284.58745 3.871946,-42.09693 h 13.501416 l 3.7035,42.16387 z"
       style="fill:#3173c5;fill-opacity:0.18592966;stroke:#000000;stroke-width:1.41111111;stroke-linecap:butt;stroke-linejoin:miter;stroke-miterlimit:4;stroke-dasharray:none;stroke-opacity:1" />
    <path
       id="path843"
       d="m 29.394268,241.15359 3.102821,-7.17851 5.596822,0.0329 c 0,0 3.936311,7.14556 3.936311,7.14556 z"
       style="fill:#483141;stroke:#000000;stroke-width:1.35559487;stroke-linecap:butt;stroke-linejoin:miter;stroke-miterlimit:4;stroke-dasharray:none;stroke-opacity:1;fill-opacity:1" />
  </g>
</svg>
