<?xml version="1.0" encoding="UTF-8" standalone="no"?>
<!-- Created with Inkscape (http://www.inkscape.org/) -->

<svg
   xmlns:dc="http://purl.org/dc/elements/1.1/"
   xmlns:cc="http://creativecommons.org/ns#"
   xmlns:rdf="http://www.w3.org/1999/02/22-rdf-syntax-ns#"
   xmlns:svg="http://www.w3.org/2000/svg"
   xmlns="http://www.w3.org/2000/svg"
   xmlns:sodipodi="http://sodipodi.sourceforge.net/DTD/sodipodi-0.dtd"
   xmlns:inkscape="http://www.inkscape.org/namespaces/inkscape"
   width="64mm"
   height="64mm"
   viewBox="0 0 64 64"
   version="1.1"
   id="svg8"
   inkscape:version="0.92.3 (2405546, 2018-03-11)"
   sodipodi:docname="statue.svg">
  <defs
     id="defs2" />
  <sodipodi:namedview
     id="base"
     pagecolor="#ffffff"
     bordercolor="#666666"
     borderopacity="1.0"
     inkscape:pageopacity="0.0"
     inkscape:pageshadow="2"
     inkscape:zoom="3.959798"
     inkscape:cx="30.765775"
     inkscape:cy="194.23163"
     inkscape:document-units="mm"
     inkscape:current-layer="layer1"
     showgrid="false"
     inkscape:window-width="1920"
     inkscape:window-height="1057"
     inkscape:window-x="-8"
     inkscape:window-y="-8"
     inkscape:window-maximized="1" />
  <metadata
     id="metadata5">
    <rdf:RDF>
      <cc:Work
         rdf:about="">
        <dc:format>image/svg+xml</dc:format>
        <dc:type
           rdf:resource="http://purl.org/dc/dcmitype/StillImage" />
        <dc:title></dc:title>
      </cc:Work>
    </rdf:RDF>
  </metadata>
  <g
     inkscape:label="statue"
     inkscape:groupmode="layer"
     id="layer1"
     transform="translate(0,-233)">
    <path
       style="fill:#fbf5f2;fill-opacity:1;stroke:#000000;stroke-width:0.19240658;stroke-linecap:butt;stroke-linejoin:miter;stroke-miterlimit:4;stroke-dasharray:none;stroke-opacity:1"
       d="m 29.800501,245.01376 c -0.402545,3.21592 -1.34565,3.56359 -1.34565,3.56359"
       id="path817"
       inkscape:connector-curvature="0" />
    <path
       style="fill:#fbf5f2;fill-opacity:1;stroke:#b7b7b1;stroke-width:0.19240658;stroke-linecap:butt;stroke-linejoin:miter;stroke-miterlimit:4;stroke-dasharray:none;stroke-opacity:1"
       d="m 33.4234,245.00134 c 0.736083,3.72501 1.207635,3.58843 1.207635,3.58843"
       id="path819"
       inkscape:connector-curvature="0" />
    <path
       style="fill:#fbf5f2;fill-opacity:1;stroke:#000000;stroke-width:0.19240658;stroke-linecap:butt;stroke-linejoin:miter;stroke-miterlimit:4;stroke-dasharray:none;stroke-opacity:1"
       d="m 28.454851,248.57735 c -5.77364,0.78226 -6.440713,1.72593 -6.440713,1.72593 0,0 -1.104123,1.192 -1.495166,4.04784 -0.391043,2.85585 -0.161018,7.52451 0.460051,8.04603 0.621069,0.5215 6.302699,-2.73168 6.624733,-2.68202 0.322036,0.0497 2.277254,0.17384 2.277254,0.17384 l 0.690076,-1.98667 -2.691299,-0.62084 0.644072,-1.39067 -1.012113,-0.2235 -0.897098,1.53968 c 0,0 -3.473385,0.447 -3.795422,0.99333"
       id="path823"
       inkscape:connector-curvature="0" />
    <path
       style="fill:#fbf5f2;fill-opacity:1;stroke:#000000;stroke-width:0.19240658;stroke-linecap:butt;stroke-linejoin:miter;stroke-miterlimit:4;stroke-dasharray:none;stroke-opacity:1"
       d="m 23.693324,257.77813 c 0,0 1.058118,-3.45185 0.943105,-4.09751"
       id="path825"
       inkscape:connector-curvature="0" />
    <path
       style="fill:#fbf5f2;fill-opacity:1;stroke:#000000;stroke-width:0.19240658;stroke-linecap:butt;stroke-linejoin:miter;stroke-miterlimit:4;stroke-dasharray:none;stroke-opacity:1"
       d="m 34.631035,248.58977 c 7.004275,1.68868 8.660458,3.47668 8.660458,3.47668 0,0 1.702189,5.76134 1.058118,7.45002 -0.644072,1.68867 -2.25425,8.44335 -4.784531,9.03936 -2.530279,0.596 -3.128345,0.149 -3.128345,0.149 l -0.644072,-3.37735 3.128346,-0.19867 -0.598066,-1.53966 1.242137,-0.69534 0.322037,1.73834 c 0,0 -0.04601,-3.82435 0.920101,-5.16534"
       id="path827"
       inkscape:connector-curvature="0" />
    <path
       style="fill:#fbf5f2;fill-opacity:1;stroke:#000000;stroke-width:0.19240658;stroke-linecap:butt;stroke-linejoin:miter;stroke-miterlimit:4;stroke-dasharray:none;stroke-opacity:1"
       d="m 40.807218,259.46681 c 0,0 -1.288142,-2.08602 -0.782086,-3.27802"
       id="path829"
       inkscape:connector-curvature="0" />
    <path
       style="fill:#fbf5f2;fill-opacity:1;stroke:#000000;stroke-width:0.19240658;stroke-linecap:butt;stroke-linejoin:miter;stroke-miterlimit:4;stroke-dasharray:none;stroke-opacity:1"
       d="m 24.337396,255.44379 0.322035,2.13567"
       id="path831"
       inkscape:connector-curvature="0" />
    <path
       style="fill:#fbf5f2;fill-opacity:1;stroke:#000000;stroke-width:0.19240658;stroke-linecap:butt;stroke-linejoin:miter;stroke-miterlimit:4;stroke-dasharray:none;stroke-opacity:1"
       d="m 40.025132,256.18879 -1.702189,7.40036"
       id="path835"
       inkscape:connector-curvature="0" />
    <path
       style="fill:#fbf5f2;fill-opacity:1;stroke:#000000;stroke-width:0.19240658;stroke-linecap:butt;stroke-linejoin:miter;stroke-miterlimit:4;stroke-dasharray:none;stroke-opacity:1"
       d="m 38.322943,263.58915 0.598066,1.53966"
       id="path837"
       inkscape:connector-curvature="0" />
    <path
       style="fill:#fbf5f2;fill-opacity:1;stroke:#000000;stroke-width:0.19240658;stroke-linecap:butt;stroke-linejoin:miter;stroke-miterlimit:4;stroke-dasharray:none;stroke-opacity:1"
       d="m 25.062911,260.95143 c 0,0 0.179232,3.91913 0.582505,4.9796 0.403274,1.06048 -0.08961,2.16706 -0.08961,2.16706"
       id="path839"
       inkscape:connector-curvature="0" />
    <path
       style="fill:#fbf5f2;fill-opacity:1;stroke:#000000;stroke-width:0.19240658;stroke-linecap:butt;stroke-linejoin:miter;stroke-miterlimit:4;stroke-dasharray:none;stroke-opacity:1"
       d="m 38.322943,263.58915 -0.310476,1.60416"
       id="path841"
       inkscape:connector-curvature="0" />
    <path
       style="fill:#fbf5f2;fill-opacity:1;stroke:#000000;stroke-width:0.21386087;stroke-linecap:butt;stroke-linejoin:miter;stroke-miterlimit:4;stroke-dasharray:none;stroke-opacity:1"
       d="m 37.662419,268.97142 c 0,0 0.216314,2.00404 0.122004,5.04824 -0.129614,4.18372 -1.200852,5.81569 -1.200852,5.81569"
       id="path843"
       inkscape:connector-curvature="0"
       sodipodi:nodetypes="csc" />
    <path
       style="fill:#fbf5f2;fill-opacity:1;stroke:#000000;stroke-width:0.19240658;stroke-linecap:butt;stroke-linejoin:miter;stroke-miterlimit:4;stroke-dasharray:none;stroke-opacity:1"
       d="m 25.555804,268.09809 c 0,0 -1.915695,8.71277 -1.218644,9.95167"
       id="path845"
       inkscape:connector-curvature="0" />
    <path
       style="fill:#fbf5f2;fill-opacity:1;stroke:#000000;stroke-width:0.08448141;stroke-linecap:butt;stroke-linejoin:miter;stroke-miterlimit:4;stroke-dasharray:none;stroke-opacity:1"
       d="m 30.738424,274.07142 1.645447,0.0668"
       id="path847"
       inkscape:connector-curvature="0" />
    <path
       style="fill:#fbf5f2;fill-opacity:1;stroke:#000000;stroke-width:0.19240658;stroke-linecap:butt;stroke-linejoin:miter;stroke-miterlimit:4;stroke-dasharray:none;stroke-opacity:1"
       d="m 30.73736,274.07222 c 0.06337,0.32602 -0.807868,4.49592 -1.568285,5.66963"
       id="path849"
       inkscape:connector-curvature="0"
       sodipodi:nodetypes="cc" />
    <path
       style="fill:#fbf5f2;fill-opacity:1;stroke:#000000;stroke-width:0.19240658;stroke-linecap:butt;stroke-linejoin:miter;stroke-miterlimit:4;stroke-dasharray:none;stroke-opacity:1"
       d="m 32.004725,274.13741 c 0,0 -0.506948,5.02086 0.38021,5.67291"
       id="path851"
       inkscape:connector-curvature="0" />
    <path
       style="fill:#fbf5f2;fill-opacity:1;stroke:#000000;stroke-width:0.25453785px;stroke-linecap:butt;stroke-linejoin:miter;stroke-opacity:1"
       d="m 24.33716,278.04976 c -1.430676,1.89673 0.02811,3.45784 0.02811,3.45784"
       id="path853"
       inkscape:connector-curvature="0"
       sodipodi:nodetypes="cc" />
    <path
       style="fill:#fbf5f2;fill-opacity:1;stroke:#000000;stroke-width:0.25453785px;stroke-linecap:butt;stroke-linejoin:miter;stroke-opacity:1"
       d="m 24.36527,281.5076 c -0.823785,9.91129 0.380214,10.0417 0.380214,10.0417 0,0 -2.407996,1.1085 -2.471364,1.89097 -0.06337,0.78247 3.041678,1.49973 3.041678,1.49973 l 2.407997,-3.26029 c 0,0 1.175109,-6.62071 0.287954,-9.16375"
       id="path861"
       inkscape:connector-curvature="0"
       sodipodi:nodetypes="cccccc" />
    <path
       style="fill:#fbf5f2;fill-opacity:1;stroke:#000000;stroke-width:0.25453785px;stroke-linecap:butt;stroke-linejoin:miter;stroke-opacity:1"
       d="m 28.01175,282.51596 c 0,0 1.157324,-2.77411 1.157324,-2.77411"
       id="path871"
       inkscape:connector-curvature="0" />
    <path
       style="fill:#fbf5f2;fill-opacity:1;stroke:#000000;stroke-width:0.25453785px;stroke-linecap:butt;stroke-linejoin:miter;stroke-opacity:1"
       d="m 32.384934,279.81032 c -0.466377,3.04217 0.384978,3.41103 0.384978,3.41103"
       id="path873"
       inkscape:connector-curvature="0" />
    <path
       style="fill:#fbf5f2;fill-opacity:1;stroke:#000000;stroke-width:0.25453785px;stroke-linecap:butt;stroke-linejoin:miter;stroke-opacity:1"
       d="m 36.583571,279.83535 c 0.08465,2.87882 -0.63228,3.61653 -0.63228,3.61653"
       id="path875"
       inkscape:connector-curvature="0"
       sodipodi:nodetypes="cc" />
    <path
       style="fill:#fbf5f2;fill-opacity:1;stroke:#000000;stroke-width:0.25453785px;stroke-linecap:butt;stroke-linejoin:miter;stroke-opacity:1"
       d="m 32.769912,283.22135 c 0.04481,8.80654 0.313657,8.80654 0.313657,8.80654"
       id="path877"
       inkscape:connector-curvature="0" />
    <path
       style="fill:#fbf5f2;fill-opacity:1;stroke:#000000;stroke-width:0.25453785px;stroke-linecap:butt;stroke-linejoin:miter;stroke-opacity:1"
       d="m 35.951291,283.45188 -0.313657,8.25325 c 0,0 4.256776,1.65987 3.405419,2.72034 -0.851355,1.06047 -2.778106,0.73773 -2.778106,0.73773 l -3.181378,-3.13531"
       id="path879"
       inkscape:connector-curvature="0"
       sodipodi:nodetypes="ccscc" />
    <path
       style="opacity:1;fill:#fbf5f2;fill-opacity:1;fill-rule:nonzero;stroke:#b7b7b1;stroke-width:0.06871663;stroke-miterlimit:4;stroke-dasharray:none;stroke-opacity:1;paint-order:stroke markers fill"
       d="m 33.089938,290.59469 c -0.03161,-0.54522 -0.08275,-2.42295 -0.113645,-4.17273 -0.03951,-2.23806 -0.08838,-3.2361 -0.164828,-3.36585 -0.131374,-0.22297 -0.346874,-2.1457 -0.311107,-2.77577 0.0141,-0.24847 -0.0196,-0.55549 -0.07487,-0.68229 -0.126004,-0.289 -0.394041,-4.42638 -0.321107,-4.95656 0.03344,-0.2431 0.100476,-0.39191 0.176539,-0.39191 0.06744,0 0.122625,-0.0371 0.122625,-0.0824 0,-0.0956 -1.557694,-0.24033 -1.68885,-0.15692 -0.04833,0.0307 -0.114109,0.23203 -0.146164,0.44731 -0.131932,0.88605 -1.158097,4.47971 -1.441531,5.04829 -0.164336,0.32967 -0.505025,1.09736 -0.757085,1.70598 -0.252062,0.60862 -0.490193,1.1399 -0.52918,1.18063 -0.03899,0.0407 -0.772464,-0.11909 -1.629945,-0.35515 -1.146224,-0.31554 -1.601868,-0.48166 -1.720739,-0.62733 -0.148274,-0.18171 -0.157974,-0.36641 -0.116954,-2.22688 0.03773,-1.71128 0.114827,-2.59147 0.49271,-5.62511 0.421449,-3.3834 0.683973,-5.02545 0.894259,-5.59347 0.207378,-0.56016 0.216378,-1.3103 0.02423,-2.01931 -0.241639,-0.89162 -0.453989,-2.62766 -0.482567,-3.94515 l -0.02268,-1.04542 1.138096,-0.55106 1.138096,-0.55105 1.184681,0.0978 c 0.651576,0.0538 1.198722,0.0833 1.215885,0.0656 0.05461,-0.0562 0.742777,-2.03801 0.743927,-2.14241 5.02e-4,-0.0551 -0.54614,-0.2204 -1.21499,-0.3674 -0.66885,-0.147 -1.256939,-0.29325 -1.306868,-0.32501 -0.05501,-0.035 0.03552,-0.31579 0.229772,-0.71271 l 0.32055,-0.65499 -0.335522,-0.09 c -0.184536,-0.0495 -0.476666,-0.11591 -0.649178,-0.1476 l -0.313657,-0.0576 -0.445405,0.77685 -0.445406,0.77685 -0.719606,0.10989 c -0.395784,0.0604 -0.785405,0.1297 -0.865823,0.15392 -0.191356,0.0576 -0.225979,-0.053 -0.353816,-1.13035 l -0.107499,-0.90596 1.894575,-3.22753 c 1.419795,-2.41871 1.968708,-3.27696 2.190405,-3.42482 0.162708,-0.10851 0.394466,-0.38861 0.51502,-0.62245 0.120555,-0.23383 0.246116,-0.42515 0.279025,-0.42515 0.03291,0 0.185803,0.16366 0.339763,0.36368 0.66618,0.86551 1.860539,1.45265 2.747061,1.35042 0.518187,-0.0597 0.978392,-0.23835 1.461088,-0.56705 0.595522,-0.40553 0.554776,-0.4592 3.236181,4.26274 1.329594,2.34141 2.417445,4.32029 2.417445,4.39752 0,0.0772 -0.306799,1.46053 -0.681775,3.07399 -0.374978,1.61346 -0.742645,3.26555 -0.817034,3.67129 -0.07439,0.40575 -0.170389,0.77665 -0.213327,0.82424 -0.04294,0.0476 -0.544865,0.11591 -1.115387,0.15184 -0.570525,0.0359 -1.052975,0.0814 -1.072113,0.10113 -0.01915,0.0197 0.115393,0.82204 0.298961,1.783 0.373026,1.95277 0.38702,1.97692 1.146906,1.97972 0.356294,0.001 0.371141,0.0134 0.426576,0.34717 0.07619,0.45872 -0.800988,9.5333 -0.975025,10.08687 -0.07389,0.23504 -0.134353,0.63237 -0.134353,0.88297 0,0.58076 -0.326933,2.46111 -0.483453,2.78056 -0.06554,0.13378 -0.142042,0.42719 -0.169997,0.65204 -0.0544,0.43749 -2.491529,7.84185 -2.581667,7.84347 -0.02956,5.1e-4 -0.07961,-0.44513 -0.111222,-0.99035 z"
       id="path881"
       inkscape:connector-curvature="0" />
  </g>
  <g
     inkscape:groupmode="layer"
     id="layer2"
     inkscape:label="towel">
    <path
       style="fill:#60647e;fill-opacity:1;stroke:#000000;stroke-width:0.26458332px;stroke-linecap:butt;stroke-linejoin:miter;stroke-opacity:1"
       d="m 27.429841,22.51822 c -3.47581,-6.125603 -2.740819,-6.326055 -2.740819,-6.326055 0,0 0.902035,-1.603618 1.5368,-1.302939 0.634765,0.300678 1.069079,0.935443 1.069079,0.935443 0,0 4.213762,8.299697 3.276184,9.077631 -1.405298,-0.792275 -3.141244,-2.38408 -3.141244,-2.38408 z"
       id="path884"
       inkscape:connector-curvature="0" />
    <path
       style="fill:none;stroke:#000000;stroke-width:0.26458332px;stroke-linecap:butt;stroke-linejoin:miter;stroke-opacity:1"
       d="m 20.446119,26.649084 c -0.601357,15.568451 -1.503391,17.673198 -1.503391,17.673198 l 5.211755,-0.100226"
       id="path886"
       inkscape:connector-curvature="0" />
    <path
       style="opacity:1;fill:#60647e;fill-opacity:1;fill-rule:nonzero;stroke:#b7b7b1;stroke-width:0.09544748;stroke-miterlimit:4;stroke-dasharray:none;stroke-opacity:1;paint-order:stroke markers fill"
       d="m 72.409862,166.81596 c 3.88e-4,-0.0633 0.05509,-0.31401 0.121569,-0.55708 0.18158,-0.66395 0.739818,-3.76143 1.01267,-5.61897 1.214112,-8.26554 2.279591,-20.54696 3.220628,-37.12311 0.324647,-5.71858 0.695192,-13.40901 0.695192,-14.42829 0,-1.09687 0.11551,-1.07596 0.424333,0.0768 0.277991,1.03768 0.743436,1.94726 1.166874,2.28034 1.118636,0.87992 5.013034,-0.36078 12.677198,-4.03877 l 2.588516,-1.24222 0.209006,3.18337 c 0.471306,7.17839 1.102059,12.24633 1.829077,14.69618 0.590426,1.98957 0.678577,2.48275 0.684374,3.82887 0.006,1.40158 -0.195585,2.68755 -0.633504,4.04061 -0.356071,1.10018 -1.72523,7.74992 -2.716829,13.19512 -1.580471,8.6789 -2.4535,15.11156 -2.666377,19.64643 l -0.08649,1.84248 -4.370543,0.0829 c -11.58104,0.21964 -14.156359,0.24427 -14.155693,0.13535 z"
       id="path888"
       inkscape:connector-curvature="0"
       transform="scale(0.26458333)" />
    <path
       style="opacity:1;fill:#60647e;fill-opacity:1;fill-rule:nonzero;stroke:#b7b7b1;stroke-width:0.09544748;stroke-miterlimit:4;stroke-dasharray:none;stroke-opacity:1;paint-order:stroke markers fill"
       d="m 90.251186,92.786925 c 0.03286,-0.113326 0.381377,-1.342468 0.774491,-2.731427 0.393115,-1.38896 0.748889,-2.610613 0.79061,-2.714785 0.04172,-0.104172 0.256271,0.975428 0.476776,2.399112 0.220506,1.423684 0.390183,2.604529 0.37706,2.624101 -0.01312,0.01957 -0.576193,0.169113 -1.251267,0.332315 -1.083697,0.261987 -1.220413,0.272605 -1.16767,0.09068 z"
       id="path890"
       inkscape:connector-curvature="0"
       transform="scale(0.26458333)" />
  </g>
  <g
     inkscape:groupmode="layer"
     id="layer3"
     inkscape:label="face"
     style="display:inline">
    <ellipse
       style="opacity:1;fill:#fbf5f2;fill-opacity:1;fill-rule:nonzero;stroke:#000000;stroke-width:0.19240682;stroke-miterlimit:4;stroke-dasharray:none;stroke-opacity:1;paint-order:stroke markers fill"
       id="path815"
       cx="31.591171"
       cy="242.19171"
       rx="4.2611766"
       ry="7.4085402"
       transform="matrix(1,0,0.0022798,0.99999739,0,-233)" />
  </g>
</svg>
