<?xml version="1.0" encoding="UTF-8" standalone="no"?>
<!-- Created with Inkscape (http://www.inkscape.org/) -->

<svg
   xmlns:dc="http://purl.org/dc/elements/1.1/"
   xmlns:cc="http://creativecommons.org/ns#"
   xmlns:rdf="http://www.w3.org/1999/02/22-rdf-syntax-ns#"
   xmlns:svg="http://www.w3.org/2000/svg"
   xmlns="http://www.w3.org/2000/svg"
   xmlns:sodipodi="http://sodipodi.sourceforge.net/DTD/sodipodi-0.dtd"
   xmlns:inkscape="http://www.inkscape.org/namespaces/inkscape"
   width="64mm"
   height="64mm"
   viewBox="0 0 64 64"
   version="1.1"
   id="svg1549"
   inkscape:version="0.92.3 (2405546, 2018-03-11)"
   sodipodi:docname="workstation.svg">
  <defs
     id="defs1543" />
  <sodipodi:namedview
     id="base"
     pagecolor="#ffffff"
     bordercolor="#666666"
     borderopacity="1.0"
     inkscape:pageopacity="0.0"
     inkscape:pageshadow="2"
     inkscape:zoom="2.8"
     inkscape:cx="95.179157"
     inkscape:cy="56.203593"
     inkscape:document-units="mm"
     inkscape:current-layer="layer1"
     showgrid="false"
     inkscape:window-width="1920"
     inkscape:window-height="1057"
     inkscape:window-x="-8"
     inkscape:window-y="-8"
     inkscape:window-maximized="1" />
  <metadata
     id="metadata1546">
    <rdf:RDF>
      <cc:Work
         rdf:about="">
        <dc:format>image/svg+xml</dc:format>
        <dc:type
           rdf:resource="http://purl.org/dc/dcmitype/StillImage" />
        <dc:title></dc:title>
      </cc:Work>
    </rdf:RDF>
  </metadata>
  <g
     inkscape:label="Layer 1"
     inkscape:groupmode="layer"
     id="layer1"
     transform="translate(0,-233)">
    <ellipse
       style="fill:#333333;fill-opacity:1;stroke-width:0.44110891"
       id="path2131-6-0"
       cx="32.433113"
       cy="285.44186"
       rx="28.917837"
       ry="5.8407669" />
    <ellipse
       style="fill:#333333;fill-opacity:0.82412056;stroke-width:0.41552281"
       id="path2131-6-8-6"
       cx="32.473248"
       cy="268.50421"
       rx="28.957972"
       ry="5.1756587" />
    <path
       style="fill:#333333;fill-opacity:1;stroke-width:0.14829813"
       d="m 3.8151602,277.22367 v -7.99005 l 0.5871875,0.41286 c 2.5320547,1.78035 10.2036123,3.18271 20.3761703,3.72476 3.233059,0.17228 11.87256,0.1735 15.24891,0.003 10.207406,-0.51801 18.041871,-1.9595 20.421943,-3.75747 l 0.538582,-0.40687 v 7.99375 7.99375 l -0.372866,-0.28484 c -2.449329,-1.87127 -10.332056,-3.32909 -20.831138,-3.8525 -4.013548,-0.20009 -14.765319,-0.082 -18.236938,0.20018 -8.789733,0.71462 -14.9273769,1.98245 -17.1446633,3.54146 l -0.5871875,0.41286 z"
       id="path5885-1"
       inkscape:connector-curvature="0" />
    <ellipse
       style="fill:#1a2541;fill-opacity:0.94137352;stroke-width:0.18829501"
       id="path2131-6-8-4"
       cx="32.60321"
       cy="257.62195"
       rx="9.5772591"
       ry="3.2135155" />
    <path
       style="fill:#1a2541;fill-opacity:0.94137352;stroke-width:0.0672016"
       d="m 23.191949,262.87222 v -4.96095 l 0.1942,0.25634 c 0.837425,1.1054 3.374637,1.97612 6.739003,2.31267 1.069268,0.10697 3.926607,0.10772 5.043266,0.002 3.375892,-0.32163 5.966982,-1.21664 6.754142,-2.33298 l 0.178125,-0.25262 v 4.96324 4.96324 l -0.123318,-0.17686 c -0.810065,-1.16185 -3.417117,-2.067 -6.889474,-2.39197 -1.327399,-0.12424 -4.883329,-0.0509 -6.031496,0.12429 -2.907025,0.4437 -4.936926,1.23088 -5.670248,2.19886 l -0.1942,0.25634 z"
       id="path5885-19"
       inkscape:connector-curvature="0" />
    <ellipse
       style="fill:#c0a99b;fill-opacity:1;stroke-width:0.06528917"
       id="path2131-6-3-1"
       cx="15.798622"
       cy="268.65747"
       rx="2.6579711"
       ry="1.3921179" />
    <ellipse
       style="fill:#9e917c;fill-opacity:1;stroke-width:0.06150213"
       id="path2131-6-8-4-4"
       cx="15.802311"
       cy="264.58066"
       rx="2.6616602"
       ry="1.2335926" />
    <path
       style="fill:none;stroke:#ffeef5;stroke-width:0.26458332px;stroke-linecap:butt;stroke-linejoin:miter;stroke-opacity:1"
       d="m 41.025871,257.0265 c 0,0 -9.955789,-2.43883 -16.637527,0.33409"
       id="path2287"
       inkscape:connector-curvature="0" />
    <path
       style="fill:none;stroke:#ffeef5;stroke-width:0.26458332px;stroke-linecap:butt;stroke-linejoin:miter;stroke-opacity:1"
       d="m 41.052192,258.54643 c 0,0 -9.955789,-2.43883 -16.637527,0.33409"
       id="path2287-8"
       inkscape:connector-curvature="0" />
    <path
       style="fill:none;stroke:#ffeef5;stroke-width:0.26458332px;stroke-linecap:butt;stroke-linejoin:miter;stroke-opacity:1"
       d="m 41.035488,260.04982 c 0,0 -9.955789,-2.43883 -16.637527,0.33409"
       id="path2287-9"
       inkscape:connector-curvature="0" />
    <path
       style="fill:none;stroke:#fefffc;stroke-width:0.26458332px;stroke-linecap:butt;stroke-linejoin:miter;stroke-opacity:1"
       d="m 24.48857,261.48656 c 0,0 3.741773,-1.40316 6.982416,-1.36975"
       id="path2330"
       inkscape:connector-curvature="0" />
    <path
       style="fill:none;stroke:#fefffc;stroke-width:0.26458332px;stroke-linecap:butt;stroke-linejoin:miter;stroke-opacity:1"
       d="m 24.48857,261.48656 c 0,4.07055 0,4.14142 0,4.14142"
       id="path2332"
       inkscape:connector-curvature="0" />
    <path
       style="fill:none;stroke:#fefffc;stroke-width:0.26458332px;stroke-linecap:butt;stroke-linejoin:miter;stroke-opacity:1"
       d="m 31.470986,260.11681 c 0,4.27093 0,4.28274 0,4.28274"
       id="path2334"
       inkscape:connector-curvature="0" />
    <path
       style="fill:none;stroke:#fefffc;stroke-width:0.26458332px;stroke-linecap:butt;stroke-linejoin:miter;stroke-opacity:1"
       d="m 31.470986,264.39955 c 0,0 -4.31016,0.2953 -6.982416,1.22843"
       id="path2336"
       inkscape:connector-curvature="0" />
    <path
       style="fill:none;fill-opacity:0.94137352;stroke:#cdceca;stroke-width:0.26458332px;stroke-linecap:butt;stroke-linejoin:miter;stroke-opacity:0.73869348"
       d="m 24.580264,263.99796 c 0.767764,-0.68509 0.933129,-0.87407 0.933129,-0.87407 l 0.531529,0.81501 0.590587,-1.55915 0.566965,0.67327 0.933129,-0.95676 0.614209,1.24024 0.401601,-1.08669 0.484283,0.55516 0.755951,-1.50009 0.401601,0.92131 0.614211,-0.76776"
       id="path2344"
       inkscape:connector-curvature="0" />
    <path
       style="fill:none;stroke:#fefffc;stroke-width:0.2990371px;stroke-linecap:butt;stroke-linejoin:miter;stroke-opacity:1"
       d="m 41.194893,261.6939 c 0,0 -4.758764,-1.40934 -8.880193,-1.37579"
       id="path2330-1"
       inkscape:connector-curvature="0" />
    <path
       style="fill:none;stroke:#fefffc;stroke-width:0.2990371px;stroke-linecap:butt;stroke-linejoin:miter;stroke-opacity:1"
       d="m 41.189473,262.98833 c 0,0 -4.758765,-1.40934 -8.880194,-1.37579"
       id="path2330-1-0"
       inkscape:connector-curvature="0" />
    <path
       style="fill:none;stroke:#fefffc;stroke-width:0.2990371px;stroke-linecap:butt;stroke-linejoin:miter;stroke-opacity:1"
       d="m 41.17766,264.27581 c 0,0 -4.758764,-1.40934 -8.880193,-1.37579"
       id="path2330-1-03"
       inkscape:connector-curvature="0" />
    <path
       style="fill:none;stroke:#fefffc;stroke-width:0.31802607px;stroke-linecap:butt;stroke-linejoin:miter;stroke-opacity:1"
       d="m 41.103093,265.74837 c 0,0 -4.722987,-1.60608 -8.81343,-1.56785"
       id="path2330-1-6"
       inkscape:connector-curvature="0" />
    <ellipse
       style="fill:#371511;fill-opacity:1;stroke-width:0.06150213"
       id="path2131-6-8-4-4-5"
       cx="15.780506"
       cy="265.50986"
       rx="2.6616602"
       ry="1.2335926" />
  </g>
  <g
     inkscape:groupmode="layer"
     id="layer2"
     inkscape:label="Layer 2">
    <path
       transform="translate(0,-233)"
       style="fill:#c0a99b;fill-opacity:1;stroke-width:0.02194982"
       d="m 13.168214,266.6987 v -1.90439 l 0.05397,0.0984 c 0.232732,0.42433 0.93786,0.75858 1.872867,0.88777 0.297165,0.0411 1.091261,0.0414 1.401597,6.2e-4 0.93821,-0.12347 1.658312,-0.46704 1.877075,-0.89558 l 0.0495,-0.097 v 1.90528 1.90527 l -0.03427,-0.0679 c -0.22513,-0.446 -0.949667,-0.79347 -1.914686,-0.91822 -0.368904,-0.0477 -1.357148,-0.0195 -1.676241,0.0477 -0.807904,0.17033 -1.372043,0.47251 -1.575844,0.84409 l -0.05397,0.0984 z"
       id="path5885-19-8"
       inkscape:connector-curvature="0" />
    <path
       style="fill:#51699b;stroke:#000000;stroke-width:0.1;stroke-linecap:butt;stroke-linejoin:miter;stroke-opacity:1;fill-opacity:0.68844223;stroke-miterlimit:4;stroke-dasharray:none"
       d="m 46.120698,35.118188 2.65599,-2.505652 4.092565,0.08352 -2.405425,2.589175 z"
       id="path2433"
       inkscape:connector-curvature="0" />
    <path
       style="fill:none;stroke:#819ec1;stroke-width:0.02252386;stroke-linecap:butt;stroke-linejoin:miter;stroke-miterlimit:4;stroke-dasharray:none;stroke-opacity:0.94509804"
       d="m 52.397818,32.896527 -3.489113,-0.0778"
       id="path2435"
       inkscape:connector-curvature="0"
       sodipodi:nodetypes="cc" />
    <path
       style="fill:none;stroke:#819ec1;stroke-width:0.02252386;stroke-linecap:butt;stroke-linejoin:miter;stroke-miterlimit:4;stroke-dasharray:none;stroke-opacity:0.94509804"
       d="m 52.239814,33.027134 -3.489113,-0.0778"
       id="path2435-3"
       inkscape:connector-curvature="0"
       sodipodi:nodetypes="cc" />
    <path
       style="fill:none;stroke:#819ec1;stroke-width:0.02252386;stroke-linecap:butt;stroke-linejoin:miter;stroke-miterlimit:4;stroke-dasharray:none;stroke-opacity:0.94509804"
       d="m 52.120969,33.156726 -3.489113,-0.0778"
       id="path2435-0"
       inkscape:connector-curvature="0"
       sodipodi:nodetypes="cc" />
    <path
       style="fill:none;stroke:#819ec1;stroke-width:0.02252386;stroke-linecap:butt;stroke-linejoin:miter;stroke-miterlimit:4;stroke-dasharray:none;stroke-opacity:0.94509804"
       d="m 52.004305,33.287333 -3.489113,-0.0778"
       id="path2435-3-9"
       inkscape:connector-curvature="0"
       sodipodi:nodetypes="cc" />
    <path
       style="fill:none;stroke:#819ec1;stroke-width:0.02252386;stroke-linecap:butt;stroke-linejoin:miter;stroke-miterlimit:4;stroke-dasharray:none;stroke-opacity:0.94509804"
       d="m 51.869605,33.410508 -3.489113,-0.0778"
       id="path2435-5"
       inkscape:connector-curvature="0"
       sodipodi:nodetypes="cc" />
    <path
       style="fill:none;stroke:#819ec1;stroke-width:0.02252386;stroke-linecap:butt;stroke-linejoin:miter;stroke-miterlimit:4;stroke-dasharray:none;stroke-opacity:0.94509804"
       d="m 51.705696,33.541115 -3.489114,-0.0778"
       id="path2435-3-2"
       inkscape:connector-curvature="0"
       sodipodi:nodetypes="cc" />
    <path
       style="fill:none;stroke:#819ec1;stroke-width:0.02252386;stroke-linecap:butt;stroke-linejoin:miter;stroke-miterlimit:4;stroke-dasharray:none;stroke-opacity:0.94509804"
       d="m 51.569132,33.670707 -3.489113,-0.0778"
       id="path2435-0-2"
       inkscape:connector-curvature="0"
       sodipodi:nodetypes="cc" />
    <path
       style="fill:none;stroke:#819ec1;stroke-width:0.02252386;stroke-linecap:butt;stroke-linejoin:miter;stroke-miterlimit:4;stroke-dasharray:none;stroke-opacity:0.94509804"
       d="m 51.42294,33.801314 -3.489114,-0.0778"
       id="path2435-3-9-1"
       inkscape:connector-curvature="0"
       sodipodi:nodetypes="cc" />
    <path
       style="fill:none;stroke:#819ec1;stroke-width:0.02252386;stroke-linecap:butt;stroke-linejoin:miter;stroke-miterlimit:4;stroke-dasharray:none;stroke-opacity:0.94509804"
       d="m 51.312795,33.944905 -3.489113,-0.0778"
       id="path2435-4"
       inkscape:connector-curvature="0"
       sodipodi:nodetypes="cc" />
    <path
       style="fill:none;stroke:#819ec1;stroke-width:0.02252386;stroke-linecap:butt;stroke-linejoin:miter;stroke-miterlimit:4;stroke-dasharray:none;stroke-opacity:0.94509804"
       d="m 51.154791,34.075512 -3.489113,-0.0778"
       id="path2435-3-4"
       inkscape:connector-curvature="0"
       sodipodi:nodetypes="cc" />
    <path
       style="fill:none;stroke:#819ec1;stroke-width:0.02252386;stroke-linecap:butt;stroke-linejoin:miter;stroke-miterlimit:4;stroke-dasharray:none;stroke-opacity:0.94509804"
       d="m 51.035946,34.205104 -3.489113,-0.0778"
       id="path2435-0-6"
       inkscape:connector-curvature="0"
       sodipodi:nodetypes="cc" />
    <path
       style="fill:none;stroke:#819ec1;stroke-width:0.02252386;stroke-linecap:butt;stroke-linejoin:miter;stroke-miterlimit:4;stroke-dasharray:none;stroke-opacity:0.94509804"
       d="m 50.919282,34.335711 -3.489113,-0.0778"
       id="path2435-3-9-9"
       inkscape:connector-curvature="0"
       sodipodi:nodetypes="cc" />
    <path
       style="fill:none;stroke:#819ec1;stroke-width:0.02252386;stroke-linecap:butt;stroke-linejoin:miter;stroke-miterlimit:4;stroke-dasharray:none;stroke-opacity:0.94509804"
       d="m 50.784582,34.458886 -3.489113,-0.0778"
       id="path2435-5-9"
       inkscape:connector-curvature="0"
       sodipodi:nodetypes="cc" />
    <path
       style="fill:none;stroke:#819ec1;stroke-width:0.02252386;stroke-linecap:butt;stroke-linejoin:miter;stroke-miterlimit:4;stroke-dasharray:none;stroke-opacity:0.94509804"
       d="m 50.620673,34.589493 -3.489114,-0.0778"
       id="path2435-3-2-2"
       inkscape:connector-curvature="0"
       sodipodi:nodetypes="cc" />
    <path
       style="fill:none;stroke:#819ec1;stroke-width:0.02252386;stroke-linecap:butt;stroke-linejoin:miter;stroke-miterlimit:4;stroke-dasharray:none;stroke-opacity:0.94509804"
       d="m 50.484109,34.719085 -3.489113,-0.0778"
       id="path2435-0-2-5"
       inkscape:connector-curvature="0"
       sodipodi:nodetypes="cc" />
    <path
       style="fill:none;stroke:#819ec1;stroke-width:0.02252386;stroke-linecap:butt;stroke-linejoin:miter;stroke-miterlimit:4;stroke-dasharray:none;stroke-opacity:0.94509804"
       d="m 50.308388,34.849692 -3.489114,-0.0778"
       id="path2435-3-9-1-0"
       inkscape:connector-curvature="0"
       sodipodi:nodetypes="cc" />
    <path
       style="fill:#3658ca;fill-opacity:0.68844222;stroke:none;stroke-width:0.29126933px;stroke-linecap:butt;stroke-linejoin:miter;stroke-opacity:1"
       d="m 29.199771,35.309553 c 0,0 0.642166,-0.552923 3.76127,-0.552923 3.119103,0 3.669538,0.552923 3.669538,0.552923 z"
       id="path2545"
       inkscape:connector-curvature="0" />
  </g>
</svg>
